<svg xmlns="http://www.w3.org/2000/svg" viewBox="0 0 200 40" fill="none">
  <g transform="scale(0.5556)">
    <line x1="23" y1="42" x2="23" y2="54" stroke="white" stroke-width="2.2"/>
    <line x1="49" y1="42" x2="49" y2="54" stroke="white" stroke-width="2.2"/>
    <path d="M 23 54 A 13 4 0 0 0 49 54" fill="none" stroke="white" stroke-width="2.2"/>
    <path d="M 23 48 A 13 4 0 0 0 49 48" fill="none" stroke="white" stroke-width="2.2"/>
    <ellipse cx="36" cy="42" rx="13" ry="4" fill="none" stroke="white" stroke-width="2.2"/>
    <line x1="36" y1="42" x2="36" y2="24" stroke="white" stroke-width="1.8"/>
    <path d="M36 36 C46 33, 57 23, 54 17 C47 21, 38 31, 36 36Z" fill="white"/>
    <path d="M36 30 C26 23, 15 17, 18 12 C25 15, 34 24, 36 30Z" fill="rgba(255,255,255,0.75)"/>
  </g>
  <text x="35" y="32"
        font-family="Roboto, -apple-system, BlinkMacSystemFont, Helvetica, sans-serif"
        font-size="20" font-weight="600" letter-spacing="0.01em"
        fill="rgba(255,255,255,0.62)">oracle</text>
  <text x="96" y="32"
        font-family="Roboto, -apple-system, BlinkMacSystemFont, Helvetica, sans-serif"
        font-size="20" font-weight="600" letter-spacing="0.01em"
        fill="white">thoughts</text>
</svg>